<!DOCTYPE svg PUBLIC "-//W3C//DTD SVG 1.1//EN" "http://www.w3.org/Graphics/SVG/1.1/DTD/svg11.dtd">
<!-- Uploaded to: SVG Repo, www.svgrepo.com, Transformed by: SVG Repo Mixer Tools -->
<svg fill="#85ba34" width="800px" height="800px" viewBox="0 0 24 24" role="img" xmlns="http://www.w3.org/2000/svg" stroke="#85ba34">
<g id="SVGRepo_bgCarrier" stroke-width="0"/>
<g id="SVGRepo_tracerCarrier" stroke-linecap="round" stroke-linejoin="round"/>
<g id="SVGRepo_iconCarrier">
<title>Sencha icon</title>
<path d="M15.287,24c0.458-1.221,0.917-1.532,0.917-2.442c0-1.452-0.878-2.8-2.237-3.434 l-5.831-2.813C5.211,13.85,3.392,10.97,3.392,7.797c0-3.23,1.867-6.133,4.871-7.576L8.712,0C8.129,0.674,7.796,1.532,7.796,2.44 c0,1.453,0.878,2.801,2.237,3.435l5.831,2.813c2.926,1.462,4.744,4.342,4.744,7.514c0,3.23-1.867,6.133-4.871,7.577L15.287,24"/>
</g>
</svg>